<svg width="43" height="39" viewBox="0 0 43 39" fill="none" xmlns="http://www.w3.org/2000/svg">
<path d="M19.5464 33.9994L9.06242 22.4293H40.3457C41.8117 22.4293 43 21.1179 43 19.5C43 17.8823 41.8117 16.5707 40.3457 16.5707H9.06244L19.5464 5.00065C20.5828 3.8567 20.5828 2.00195 19.5464 0.857972C19.4168 0.714974 19.2771 0.589857 19.13 0.482621C18.0997 -0.268128 16.6996 -0.142987 15.7926 0.857972L0.777442 17.4286C-0.259147 18.5727 -0.259147 20.4275 0.777442 21.5713L15.7926 38.1421C16.8292 39.286 18.5097 39.286 19.5464 38.1421C20.5828 36.9981 20.5828 35.1434 19.5464 33.9994Z" fill="black"/>
</svg>
